<?xml version="1.0" encoding="UTF-8"?>
<!DOCTYPE svg PUBLIC "-//W3C//DTD SVG 1.1//EN" "http://www.w3.org/Graphics/SVG/1.1/DTD/svg11.dtd">
<svg xmlns="http://www.w3.org/2000/svg" version="1.1" width="195px" height="195px" style="shape-rendering:geometricPrecision; text-rendering:geometricPrecision; image-rendering:optimizeQuality; fill-rule:evenodd; clip-rule:evenodd" xmlns:xlink="http://www.w3.org/1999/xlink">
<g><path style="opacity:0.837" fill="#5b5e7d" d="M 123.5,40.5 C 123.565,40.9382 123.399,41.2716 123,41.5C 109.007,28.6104 93.8404,27.1104 77.5,37C 76.2617,37.69 76.2617,38.19 77.5,38.5C 76.8333,39.5 76.1667,40.5 75.5,41.5C 74.3832,44.2791 73.2166,44.6124 72,42.5C 68.3195,47.196 65.9861,52.5293 65,58.5C 64.7216,57.5842 64.2216,56.9175 63.5,56.5C 70.4697,35.1722 85.1364,26.3389 107.5,30C 114.065,31.7721 119.398,35.2721 123.5,40.5 Z"/></g>
<g><path style="opacity:1" fill="#ddd1e0" d="M 119.5,55.5 C 109.188,37.6908 94.5209,33.0241 75.5,41.5C 76.1667,40.5 76.8333,39.5 77.5,38.5C 92.6622,32.7656 105.829,35.7656 117,47.5C 118.555,49.4434 119.722,51.6101 120.5,54C 120.43,54.7648 120.097,55.2648 119.5,55.5 Z"/></g>
<g><path style="opacity:1" fill="#2c1b3f" d="M 119.5,55.5 C 119.5,56.1667 119.5,56.8333 119.5,57.5C 118.85,59.4352 118.517,61.4352 118.5,63.5C 116.027,63.9118 114.694,62.9118 114.5,60.5C 115.393,55.3859 113.393,52.8859 108.5,53C 104.673,55.9053 104.673,58.9053 108.5,62C 109.448,62.4828 110.448,62.6495 111.5,62.5C 111.5,63.1667 111.167,63.5 110.5,63.5C 108.5,63.1667 106.5,62.8333 104.5,62.5C 104.335,58.8183 104.501,55.1516 105,51.5C 107.376,51.9226 109.543,51.0893 111.5,49C 109.351,47.848 107.518,46.348 106,44.5C 105.667,44.8333 105.333,45.1667 105,45.5C 103.2,41.5335 100.367,40.2002 96.5,41.5C 74.707,40.1238 65.8736,50.1238 70,71.5C 71.045,72.3734 71.8783,73.3734 72.5,74.5C 72.3379,76.5273 72.5045,78.5273 73,80.5C 75.8491,81.3778 78.3491,82.7111 80.5,84.5C 78.5659,85.1103 76.8993,86.1103 75.5,87.5C 65.8276,87.6665 56.1609,87.4998 46.5,87C 55.8333,86.6667 65.1667,86.3333 74.5,86C 73.4734,85.4867 72.4734,84.9867 71.5,84.5C 65.0028,76.333 62.3361,66.9996 63.5,56.5C 64.2216,56.9175 64.7216,57.5842 65,58.5C 65.9861,52.5293 68.3195,47.196 72,42.5C 73.2166,44.6124 74.3832,44.2791 75.5,41.5C 94.5209,33.0241 109.188,37.6908 119.5,55.5 Z"/></g>
<g><path style="opacity:1" fill="#c8b7cd" d="M 96.5,41.5 C 96.9175,42.2216 97.5842,42.7216 98.5,43C 98.2716,43.3988 97.9382,43.5654 97.5,43.5C 89.2507,44.5418 82.084,47.8751 76,53.5C 72.4979,59.6001 71.6646,65.9335 73.5,72.5C 73.6716,73.4916 73.3382,74.1583 72.5,74.5C 71.8783,73.3734 71.045,72.3734 70,71.5C 65.8736,50.1238 74.707,40.1238 96.5,41.5 Z"/></g>
<g><path style="opacity:1" fill="#361945" d="M 110.5,63.5 C 110.5,64.1667 110.833,64.5 111.5,64.5C 111.433,65.9587 111.766,67.2921 112.5,68.5C 109.125,72.0907 105.459,75.4241 101.5,78.5C 95.1025,82.5203 88.1025,84.5203 80.5,84.5C 78.3491,82.7111 75.8491,81.3778 73,80.5C 72.5045,78.5273 72.3379,76.5273 72.5,74.5C 73.3382,74.1583 73.6716,73.4916 73.5,72.5C 73.3367,70.1432 73.5034,67.8098 74,65.5C 80.112,66.5298 80.9454,64.6965 76.5,60C 77.0897,58.4905 77.7564,56.9905 78.5,55.5C 79.3081,55.8076 79.9747,56.3076 80.5,57C 78.9338,59.6766 79.6005,61.0099 82.5,61C 85.3066,59.0698 87.4732,56.5698 89,53.5C 90.8402,54.8331 91.3402,54.6665 90.5,53C 91.8333,51.6667 93.1667,50.3333 94.5,49C 93.1667,48.3333 91.8333,47.6667 90.5,47C 93.0444,45.908 95.7111,45.2414 98.5,45C 97.944,44.6174 97.6107,44.1174 97.5,43.5C 97.9382,43.5654 98.2716,43.3988 98.5,43C 97.5842,42.7216 96.9175,42.2216 96.5,41.5C 100.367,40.2002 103.2,41.5335 105,45.5C 105.333,45.1667 105.667,44.8333 106,44.5C 107.518,46.348 109.351,47.848 111.5,49C 109.543,51.0893 107.376,51.9226 105,51.5C 104.501,55.1516 104.335,58.8183 104.5,62.5C 106.5,62.8333 108.5,63.1667 110.5,63.5 Z"/></g>
<g><path style="opacity:1" fill="#40264b" d="M 97.5,43.5 C 97.6107,44.1174 97.944,44.6174 98.5,45C 95.7111,45.2414 93.0444,45.908 90.5,47C 91.8333,47.6667 93.1667,48.3333 94.5,49C 93.1667,50.3333 91.8333,51.6667 90.5,53C 91.3402,54.6665 90.8402,54.8331 89,53.5C 87.4732,56.5698 85.3066,59.0698 82.5,61C 79.6005,61.0099 78.9338,59.6766 80.5,57C 79.9747,56.3076 79.3081,55.8076 78.5,55.5C 77.7564,56.9905 77.0897,58.4905 76.5,60C 80.9454,64.6965 80.112,66.5298 74,65.5C 73.5034,67.8098 73.3367,70.1432 73.5,72.5C 71.6646,65.9335 72.4979,59.6001 76,53.5C 82.084,47.8751 89.2507,44.5418 97.5,43.5 Z"/></g>
<g><path style="opacity:1" fill="#c3b6c9" d="M 114.5,60.5 C 113.5,61.1667 112.5,61.8333 111.5,62.5C 110.448,62.6495 109.448,62.4828 108.5,62C 104.673,58.9053 104.673,55.9053 108.5,53C 113.393,52.8859 115.393,55.3859 114.5,60.5 Z"/></g>
<g><path style="opacity:1" fill="#dccfe1" d="M 126.5,75.5 C 120.358,73.896 117.691,69.896 118.5,63.5C 118.517,61.4352 118.85,59.4352 119.5,57.5C 121.01,56.1639 122.677,54.9973 124.5,54C 125.944,53.2195 127.277,53.3861 128.5,54.5C 119.883,60.5761 119.216,67.5761 126.5,75.5 Z"/></g>
<g><path style="opacity:1" fill="#232138" d="M 123.5,40.5 C 127.159,47.1473 131.326,53.4806 136,59.5C 138.632,67.7202 136.132,73.3868 128.5,76.5C 127.508,76.6716 126.842,76.3382 126.5,75.5C 119.216,67.5761 119.883,60.5761 128.5,54.5C 127.277,53.3861 125.944,53.2195 124.5,54C 122.677,54.9973 121.01,56.1639 119.5,57.5C 119.5,56.8333 119.5,56.1667 119.5,55.5C 120.097,55.2648 120.43,54.7648 120.5,54C 119.722,51.6101 118.555,49.4434 117,47.5C 105.829,35.7656 92.6622,32.7656 77.5,38.5C 76.2617,38.19 76.2617,37.69 77.5,37C 93.8404,27.1104 109.007,28.6104 123,41.5C 123.399,41.2716 123.565,40.9382 123.5,40.5 Z"/></g>
<g><path style="opacity:1" fill="#f6f7f8" d="M 133.5,61.5 C 132.376,67.3036 129.043,69.3036 123.5,67.5C 122.9,63.4836 123.9,59.9836 126.5,57C 130.244,56.2356 132.577,57.7356 133.5,61.5 Z"/></g>
<g><path style="opacity:1" fill="#f1eff2" d="M 91.5,31.5 C 106.47,30.4025 117.97,36.0691 126,48.5C 126.49,49.7932 126.657,51.1266 126.5,52.5C 125.07,52.4208 123.736,52.7542 122.5,53.5C 115.38,40.5981 104.38,33.7647 89.5,33C 90.4158,32.7216 91.0825,32.2216 91.5,31.5 Z"/></g>
<g><path style="opacity:1" fill="#c5b5cc" d="M 111.5,64.5 C 112.5,64.5 113.5,64.5 114.5,64.5C 114.843,66.4832 114.176,67.8166 112.5,68.5C 111.766,67.2921 111.433,65.9587 111.5,64.5 Z"/></g>
<g><path style="opacity:1" fill="#bba8be" d="M 133.5,61.5 C 135.532,66.5244 134.199,70.5244 129.5,73.5C 125.818,73.1514 123.818,71.1514 123.5,67.5C 129.043,69.3036 132.376,67.3036 133.5,61.5 Z"/></g>
<g><path style="opacity:1" fill="#220e2d" d="M 114.5,60.5 C 114.694,62.9118 116.027,63.9118 118.5,63.5C 117.691,69.896 120.358,73.896 126.5,75.5C 126.842,76.3382 127.508,76.6716 128.5,76.5C 128.068,77.7095 127.401,78.7095 126.5,79.5C 125.833,79.5 125.167,79.5 124.5,79.5C 124.414,78.5041 124.748,77.6708 125.5,77C 124.5,76.5 123.5,76 122.5,75.5C 119.456,82.5436 114.456,87.5436 107.5,90.5C 107.167,90.5 106.833,90.5 106.5,90.5C 110.732,87.7784 114.565,84.4451 118,80.5C 119.59,78.3502 120.257,76.0168 120,73.5C 115.672,83.4092 108.172,89.0759 97.5,90.5C 94.1501,90.665 90.8168,90.4983 87.5,90C 86.9221,88.583 85.9221,87.7496 84.5,87.5C 81.5,87.5 78.5,87.5 75.5,87.5C 76.8993,86.1103 78.5659,85.1103 80.5,84.5C 88.1025,84.5203 95.1025,82.5203 101.5,78.5C 105.459,75.4241 109.125,72.0907 112.5,68.5C 114.176,67.8166 114.843,66.4832 114.5,64.5C 113.5,64.5 112.5,64.5 111.5,64.5C 110.833,64.5 110.5,64.1667 110.5,63.5C 111.167,63.5 111.5,63.1667 111.5,62.5C 112.5,61.8333 113.5,61.1667 114.5,60.5 Z"/></g>
<g><path style="opacity:1" fill="#c0afc8" d="M 124.5,79.5 C 120.418,84.8036 115.251,88.8036 109,91.5C 108.235,91.4301 107.735,91.0967 107.5,90.5C 114.456,87.5436 119.456,82.5436 122.5,75.5C 123.5,76 124.5,76.5 125.5,77C 124.748,77.6708 124.414,78.5041 124.5,79.5 Z"/></g>
<g><path style="opacity:0.114" fill="#3f3952" d="M 124.5,79.5 C 125.167,79.5 125.833,79.5 126.5,79.5C 125.972,80.7206 125.305,81.8873 124.5,83C 130,84.5 133.5,88 135,93.5C 135.831,99.4771 136.331,105.477 136.5,111.5C 135.883,111.389 135.383,111.056 135,110.5C 134.863,105.735 134.363,101.735 133.5,98.5C 133.048,91.0431 129.048,86.7098 121.5,85.5C 119.355,86.6825 119.355,88.1825 121.5,90C 123.886,89.6487 126.219,89.8153 128.5,90.5C 126.5,91.1667 124.5,91.8333 122.5,92.5C 123.9,95.0354 124.9,97.702 125.5,100.5C 125.167,100.5 124.833,100.5 124.5,100.5C 122.928,97.682 121.594,94.682 120.5,91.5C 120.144,90.1301 119.31,89.1301 118,88.5C 114.339,90.7478 110.505,92.5811 106.5,94C 108.611,94.8447 110.611,95.678 112.5,96.5C 111.833,96.5 111.5,96.8333 111.5,97.5C 109.236,96.7814 106.903,96.448 104.5,96.5C 105.807,95.1984 105.807,93.865 104.5,92.5C 105.243,91.8182 105.909,91.1515 106.5,90.5C 106.833,90.5 107.167,90.5 107.5,90.5C 107.735,91.0967 108.235,91.4301 109,91.5C 115.251,88.8036 120.418,84.8036 124.5,79.5 Z"/></g>
<g><path style="opacity:1" fill="#d1bdd9" d="M 106.5,90.5 C 100.277,92.2686 93.9433,92.7686 87.5,92C 91.0252,91.8213 94.3586,91.3213 97.5,90.5C 108.172,89.0759 115.672,83.4092 120,73.5C 120.257,76.0168 119.59,78.3502 118,80.5C 114.565,84.4451 110.732,87.7784 106.5,90.5 Z"/></g>
<g><path style="opacity:1" fill="#2b477a" d="M 71.5,84.5 C 72.4734,84.9867 73.4734,85.4867 74.5,86C 65.1667,86.3333 55.8333,86.6667 46.5,87C 56.1609,87.4998 65.8276,87.6665 75.5,87.5C 78.5,87.5 81.5,87.5 84.5,87.5C 84.5,87.8333 84.5,88.1667 84.5,88.5C 73.1667,88.5 61.8333,88.5 50.5,88.5C 49.1667,88.5 47.8333,88.5 46.5,88.5C 48.0109,97.3694 50.3442,106.036 53.5,114.5C 52.5,114.833 51.8333,115.5 51.5,116.5C 47.8899,107.161 45.3899,97.4945 44,87.5C 44.5,87 45,86.5 45.5,86C 54.343,85.8296 63.0097,85.3296 71.5,84.5 Z"/></g>
<g><path style="opacity:1" fill="#301f3b" d="M 84.5,88.5 C 84.5,88.1667 84.5,87.8333 84.5,87.5C 85.9221,87.7496 86.9221,88.583 87.5,90C 90.8168,90.4983 94.1501,90.665 97.5,90.5C 94.3586,91.3213 91.0252,91.8213 87.5,92C 93.9433,92.7686 100.277,92.2686 106.5,90.5C 105.909,91.1515 105.243,91.8182 104.5,92.5C 105.807,93.865 105.807,95.1984 104.5,96.5C 100.269,96.4037 96.9354,98.0703 94.5,101.5C 92.7068,104.947 93.7068,107.447 97.5,109C 101.843,110.243 105.177,109.076 107.5,105.5C 108.988,102.814 109.655,103.147 109.5,106.5C 112.119,106.232 114.619,106.565 117,107.5C 117.5,102.83 115.667,99.4962 111.5,97.5C 111.5,96.8333 111.833,96.5 112.5,96.5C 112.833,96.5 113.167,96.5 113.5,96.5C 115.123,97.7794 116.79,99.1128 118.5,100.5C 118.128,103.383 118.128,106.383 118.5,109.5C 117.868,111.743 116.534,113.409 114.5,114.5C 115.622,112.948 116.122,111.282 116,109.5C 114.512,111.16 112.679,112.16 110.5,112.5C 109.735,112.077 108.902,111.743 108,111.5C 103.892,113.471 99.7253,115.304 95.5,117C 87.4347,116.861 79.768,117.695 72.5,119.5C 71.8333,119.167 71.1667,118.833 70.5,118.5C 78.3655,117.111 86.3655,115.777 94.5,114.5C 95.2506,115.573 96.2506,115.74 97.5,115C 100.833,113.333 104.167,111.667 107.5,110C 103.548,110.434 99.5478,110.434 95.5,110C 92.3646,107.032 91.6979,107.865 93.5,112.5C 93.5,113.167 93.1667,113.5 92.5,113.5C 92.2041,111.597 91.5375,109.93 90.5,108.5C 90.5,107.167 90.5,105.833 90.5,104.5C 88.3035,99.2442 86.3035,93.9109 84.5,88.5 Z"/></g>
<g><path style="opacity:1" fill="#bcb0c0" d="M 120.5,91.5 C 117.953,92.9336 115.619,94.6002 113.5,96.5C 113.167,96.5 112.833,96.5 112.5,96.5C 110.611,95.678 108.611,94.8447 106.5,94C 110.505,92.5811 114.339,90.7478 118,88.5C 119.31,89.1301 120.144,90.1301 120.5,91.5 Z"/></g>
<g><path style="opacity:1" fill="#3aabec" d="M 50.5,88.5 C 50.6107,89.1174 50.944,89.6174 51.5,90C 61.8333,90.3333 72.1667,90.6667 82.5,91C 85.4622,95.3039 87.2955,100.137 88,105.5C 88.6667,106.833 89.3333,108.167 90,109.5C 90.3988,109.272 90.5654,108.938 90.5,108.5C 91.5375,109.93 92.2041,111.597 92.5,113.5C 89.2319,114.822 85.5652,115.489 81.5,115.5C 77.8333,115.333 74.1667,115.167 70.5,115C 65.3279,111.729 60.1612,111.896 55,115.5C 54.2352,115.43 53.7352,115.097 53.5,114.5C 50.3442,106.036 48.0109,97.3694 46.5,88.5C 47.8333,88.5 49.1667,88.5 50.5,88.5 Z"/></g>
<g><path style="opacity:1" fill="#f6f3f7" d="M 120.5,91.5 C 121.594,94.682 122.928,97.682 124.5,100.5C 124.5,102.833 124.5,105.167 124.5,107.5C 123.373,108.122 122.373,108.955 121.5,110C 120.251,110.74 119.251,110.573 118.5,109.5C 118.128,106.383 118.128,103.383 118.5,100.5C 116.79,99.1128 115.123,97.7794 113.5,96.5C 115.619,94.6002 117.953,92.9336 120.5,91.5 Z"/></g>
<g><path style="opacity:1" fill="#c2b9c9" d="M 90.5,104.5 C 90.3083,101.399 89.6416,98.3992 88.5,95.5C 89.1667,95.1667 89.8333,94.8333 90.5,94.5C 93.1454,95.1076 95.8121,95.6076 98.5,96C 94.842,98.1498 92.1753,100.983 90.5,104.5 Z"/></g>
<g><path style="opacity:1" fill="#f5f2f6" d="M 104.5,96.5 C 106.903,96.448 109.236,96.7814 111.5,97.5C 115.667,99.4962 117.5,102.83 117,107.5C 114.619,106.565 112.119,106.232 109.5,106.5C 109.655,103.147 108.988,102.814 107.5,105.5C 103.13,107.157 98.9635,106.824 95,104.5C 94.5172,103.552 94.3505,102.552 94.5,101.5C 96.9354,98.0703 100.269,96.4037 104.5,96.5 Z"/></g>
<g><path style="opacity:1" fill="#89c5f1" d="M 50.5,88.5 C 61.8333,88.5 73.1667,88.5 84.5,88.5C 86.3035,93.9109 88.3035,99.2442 90.5,104.5C 90.5,105.833 90.5,107.167 90.5,108.5C 90.5654,108.938 90.3988,109.272 90,109.5C 89.3333,108.167 88.6667,106.833 88,105.5C 87.2955,100.137 85.4622,95.3039 82.5,91C 72.1667,90.6667 61.8333,90.3333 51.5,90C 50.944,89.6174 50.6107,89.1174 50.5,88.5 Z"/></g>
<g><path style="opacity:1" fill="#efebf0" d="M 133.5,98.5 C 133.5,102.5 133.5,106.5 133.5,110.5C 130.833,110.5 128.167,110.5 125.5,110.5C 125.5,107.167 125.5,103.833 125.5,100.5C 124.9,97.702 123.9,95.0354 122.5,92.5C 124.5,91.8333 126.5,91.1667 128.5,90.5C 126.219,89.8153 123.886,89.6487 121.5,90C 119.355,88.1825 119.355,86.6825 121.5,85.5C 129.048,86.7098 133.048,91.0431 133.5,98.5 Z"/></g>
<g><path style="opacity:1" fill="#c7fafe" d="M 65.5,100.5 C 66.3609,103.04 68.0275,105.04 70.5,106.5C 64.7403,108.213 63.0736,106.213 65.5,100.5 Z"/></g>
<g><path style="opacity:1" fill="#bcb3ca" d="M 94.5,101.5 C 94.3505,102.552 94.5172,103.552 95,104.5C 98.9635,106.824 103.13,107.157 107.5,105.5C 105.177,109.076 101.843,110.243 97.5,109C 93.7068,107.447 92.7068,104.947 94.5,101.5 Z"/></g>
<g><path style="opacity:1" fill="#b9abbf" d="M 124.5,107.5 C 123.696,113.88 120.363,116.213 114.5,114.5C 116.534,113.409 117.868,111.743 118.5,109.5C 119.251,110.573 120.251,110.74 121.5,110C 122.373,108.955 123.373,108.122 124.5,107.5 Z"/></g>
<g><path style="opacity:1" fill="#c1aac4" d="M 114.5,114.5 C 113.167,114.5 111.833,114.5 110.5,114.5C 110.5,113.833 110.5,113.167 110.5,112.5C 112.679,112.16 114.512,111.16 116,109.5C 116.122,111.282 115.622,112.948 114.5,114.5 Z"/></g>
<g><path style="opacity:1" fill="#769ac2" d="M 94.5,114.5 C 94.6716,113.508 94.3382,112.842 93.5,112.5C 91.6979,107.865 92.3646,107.032 95.5,110C 99.5478,110.434 103.548,110.434 107.5,110C 104.167,111.667 100.833,113.333 97.5,115C 96.2506,115.74 95.2506,115.573 94.5,114.5 Z"/></g>
<g><path style="opacity:1" fill="#9c344e" d="M 110.5,112.5 C 110.5,113.167 110.5,113.833 110.5,114.5C 110.167,114.5 109.833,114.5 109.5,114.5C 107.545,113.07 105.879,113.403 104.5,115.5C 101.642,115.595 99.3091,116.762 97.5,119C 89.1733,119.5 80.84,119.666 72.5,119.5C 79.768,117.695 87.4347,116.861 95.5,117C 99.7253,115.304 103.892,113.471 108,111.5C 108.902,111.743 109.735,112.077 110.5,112.5 Z"/></g>
<g><path style="opacity:0.682" fill="#2d2e53" d="M 92.5,113.5 C 93.1667,113.5 93.5,113.167 93.5,112.5C 94.3382,112.842 94.6716,113.508 94.5,114.5C 86.3655,115.777 78.3655,117.111 70.5,118.5C 70.5,119.167 70.1667,119.5 69.5,119.5C 67.0417,115.738 63.7084,114.738 59.5,116.5C 58.5713,117.689 58.238,119.022 58.5,120.5C 62.269,125.546 67.269,125.879 73.5,121.5C 74.4232,120.697 75.4232,120.53 76.5,121C 75.4019,121.77 75.4019,122.603 76.5,123.5C 67.4118,129.514 59.2452,128.514 52,120.5C 51.51,119.207 51.3433,117.873 51.5,116.5C 51.8333,115.5 52.5,114.833 53.5,114.5C 53.7352,115.097 54.2352,115.43 55,115.5C 60.1612,111.896 65.3279,111.729 70.5,115C 74.1667,115.167 77.8333,115.333 81.5,115.5C 85.5652,115.489 89.2319,114.822 92.5,113.5 Z"/></g>
<g><path style="opacity:1" fill="#471330" d="M 104.5,115.5 C 104.5,115.833 104.5,116.167 104.5,116.5C 103.5,116.833 102.833,117.5 102.5,118.5C 101.209,118.263 100.209,118.596 99.5,119.5C 95.8684,120.549 92.535,121.883 89.5,123.5C 88.8333,123.5 88.1667,123.5 87.5,123.5C 86.6661,122.252 85.3328,121.585 83.5,121.5C 82.1667,121.667 80.8333,121.833 79.5,122C 80.3402,123.666 79.8402,123.833 78,122.5C 77.5172,123.448 77.3505,124.448 77.5,125.5C 76.6618,125.158 76.3284,124.492 76.5,123.5C 75.4019,122.603 75.4019,121.77 76.5,121C 75.4232,120.53 74.4232,120.697 73.5,121.5C 73.1667,120.833 72.8333,120.167 72.5,119.5C 80.84,119.666 89.1733,119.5 97.5,119C 99.3091,116.762 101.642,115.595 104.5,115.5 Z"/></g>
<g><path style="opacity:1" fill="#c6b5cb" d="M 104.5,116.5 C 106.329,119.852 105.662,122.519 102.5,124.5C 102.167,124.167 101.833,123.833 101.5,123.5C 102.309,121.929 102.643,120.262 102.5,118.5C 102.833,117.5 103.5,116.833 104.5,116.5 Z"/></g>
<g><path style="opacity:0.906" fill="#aa92ac" d="M 70.5,118.5 C 71.1667,118.833 71.8333,119.167 72.5,119.5C 72.8333,120.167 73.1667,120.833 73.5,121.5C 67.269,125.879 62.269,125.546 58.5,120.5C 62.2281,121.207 65.8948,120.874 69.5,119.5C 70.1667,119.5 70.5,119.167 70.5,118.5 Z"/></g>
<g><path style="opacity:1" fill="#cbb3cf" d="M 99.5,119.5 C 100.791,120.542 100.791,121.708 99.5,123C 96.1832,123.498 92.8499,123.665 89.5,123.5C 92.535,121.883 95.8684,120.549 99.5,119.5 Z"/></g>
<g><path style="opacity:0.996" fill="#211731" d="M 136.5,111.5 C 137.035,117.533 135.868,123.199 133,128.5C 129.708,131.32 125.875,132.653 121.5,132.5C 121.44,131.957 121.107,131.624 120.5,131.5C 119.833,135.313 119.166,138.979 118.5,142.5C 118.435,134.743 118.935,127.076 120,119.5C 115.462,119.825 111.295,120.825 107.5,122.5C 106.733,123.172 106.066,124.005 105.5,125C 100.177,125.499 94.8437,125.666 89.5,125.5C 87.0521,124.527 84.3854,124.194 81.5,124.5C 83.2646,123.539 85.2646,123.205 87.5,123.5C 88.1667,123.5 88.8333,123.5 89.5,123.5C 92.8499,123.665 96.1832,123.498 99.5,123C 100.791,121.708 100.791,120.542 99.5,119.5C 100.209,118.596 101.209,118.263 102.5,118.5C 102.643,120.262 102.309,121.929 101.5,123.5C 101.833,123.833 102.167,124.167 102.5,124.5C 105.662,122.519 106.329,119.852 104.5,116.5C 104.5,116.167 104.5,115.833 104.5,115.5C 105.879,113.403 107.545,113.07 109.5,114.5C 109.833,114.5 110.167,114.5 110.5,114.5C 111.833,114.5 113.167,114.5 114.5,114.5C 120.363,116.213 123.696,113.88 124.5,107.5C 124.5,105.167 124.5,102.833 124.5,100.5C 124.833,100.5 125.167,100.5 125.5,100.5C 125.5,103.833 125.5,107.167 125.5,110.5C 128.167,110.5 130.833,110.5 133.5,110.5C 133.5,106.5 133.5,102.5 133.5,98.5C 134.363,101.735 134.863,105.735 135,110.5C 135.383,111.056 135.883,111.389 136.5,111.5 Z"/></g>
<g><path style="opacity:1" fill="#ceb7d2" d="M 125.5,117.5 C 126.234,118.878 126.901,120.378 127.5,122C 124.861,121.549 124.194,120.049 125.5,117.5 Z"/></g>
<g><path style="opacity:1" fill="#eeebee" d="M 126.5,111.5 C 129.167,111.5 131.833,111.5 134.5,111.5C 135.014,115.788 133.847,119.455 131,122.5C 129.739,122.241 128.739,121.574 128,120.5C 127.637,117.456 127.137,114.456 126.5,111.5 Z"/></g>
<g><path style="opacity:1" fill="#ccbbd1" d="M 109.5,114.5 C 110.512,116.876 112.345,117.876 115,117.5C 119.211,117.543 122.545,115.877 125,112.5C 125.72,114.112 125.554,115.612 124.5,117C 118.585,118.527 112.585,118.861 106.5,118C 105.306,115.342 106.306,114.176 109.5,114.5 Z"/></g>
<g><path style="opacity:1" fill="#b7a9c2" d="M 122.5,122.5 C 125.322,123.815 128.322,124.815 131.5,125.5C 128.68,128.89 125.014,130.557 120.5,130.5C 120.584,127.673 121.25,125.006 122.5,122.5 Z"/></g>
<g><path style="opacity:1" fill="#f9f9fa" d="M 107.5,122.5 C 112.078,121.729 114.745,123.562 115.5,128C 113.904,133.716 113.238,139.549 113.5,145.5C 109.833,145.5 106.167,145.5 102.5,145.5C 101.828,144.733 100.995,144.066 100,143.5C 99.8238,139.312 99.3238,135.312 98.5,131.5C 92.3018,131.348 86.6352,129.515 81.5,126C 84.146,125.503 86.8127,125.336 89.5,125.5C 94.8437,125.666 100.177,125.499 105.5,125C 106.066,124.005 106.733,123.172 107.5,122.5 Z"/></g>
<g><path style="opacity:1" fill="#b7acbf" d="M 81.5,124.5 C 84.3854,124.194 87.0521,124.527 89.5,125.5C 86.8127,125.336 84.146,125.503 81.5,126C 86.6352,129.515 92.3018,131.348 98.5,131.5C 98.5,132.833 98.5,134.167 98.5,135.5C 91.1018,135.711 85.1018,133.044 80.5,127.5C 80.5858,126.504 80.2524,125.671 79.5,125C 80.0944,124.536 80.7611,124.369 81.5,124.5 Z"/></g>
<g><path style="opacity:0.153" fill="#676989" d="M 87.5,123.5 C 85.2646,123.205 83.2646,123.539 81.5,124.5C 80.7611,124.369 80.0944,124.536 79.5,125C 80.2524,125.671 80.5858,126.504 80.5,127.5C 79.8349,130.649 79.5016,133.982 79.5,137.5C 79.3037,142.351 79.9704,147.017 81.5,151.5C 80.1667,152.5 78.8333,153.5 77.5,154.5C 77.7512,152.83 78.4178,151.33 79.5,150C 78.7734,148.601 78.2734,147.101 78,145.5C 77.5004,138.842 77.3337,132.175 77.5,125.5C 77.3505,124.448 77.5172,123.448 78,122.5C 79.8402,123.833 80.3402,123.666 79.5,122C 80.8333,121.833 82.1667,121.667 83.5,121.5C 85.3328,121.585 86.6661,122.252 87.5,123.5 Z"/></g>
<g><path style="opacity:1" fill="#bbb0c0" d="M 118.5,142.5 C 117.514,144.408 115.848,145.408 113.5,145.5C 113.238,139.549 113.904,133.716 115.5,128C 114.745,123.562 112.078,121.729 107.5,122.5C 111.295,120.825 115.462,119.825 120,119.5C 118.935,127.076 118.435,134.743 118.5,142.5 Z"/></g>
<g><path style="opacity:1" fill="#261e2d" d="M 80.5,127.5 C 85.1018,133.044 91.1018,135.711 98.5,135.5C 98.5,134.167 98.5,132.833 98.5,131.5C 99.3238,135.312 99.8238,139.312 100,143.5C 100.995,144.066 101.828,144.733 102.5,145.5C 101.414,145.62 100.747,146.287 100.5,147.5C 100.791,152.494 103.125,154.161 107.5,152.5C 110.11,152.647 112.444,153.481 114.5,155C 110.908,154.498 107.241,154.498 103.5,155C 101.973,156.032 100.64,157.199 99.5,158.5C 98.8333,158.5 98.1667,158.5 97.5,158.5C 101.103,155.442 101.436,152.109 98.5,148.5C 98.5,147.5 98.5,146.5 98.5,145.5C 92.3528,145.654 86.3528,145.154 80.5,144C 81.2546,146.175 82.088,148.341 83,150.5C 85.8381,149.325 88.6715,149.491 91.5,151C 88.1204,151.339 84.7871,151.839 81.5,152.5C 81.5,152.167 81.5,151.833 81.5,151.5C 79.9704,147.017 79.3037,142.351 79.5,137.5C 79.5016,133.982 79.8349,130.649 80.5,127.5 Z"/></g>
<g><path style="opacity:1" fill="#b8acbb" d="M 95.5,144.5 C 95.7135,142.856 95.3802,141.356 94.5,140C 89.6871,138.093 85.0204,135.926 80.5,133.5C 80.3505,132.448 80.5172,131.448 81,130.5C 85.5741,134.97 91.0741,136.97 97.5,136.5C 98.0356,139.698 97.369,142.365 95.5,144.5 Z"/></g>
<g><path style="opacity:1" fill="#f6f4f6" d="M 80.5,133.5 C 85.0204,135.926 89.6871,138.093 94.5,140C 95.3802,141.356 95.7135,142.856 95.5,144.5C 90.4246,144.351 85.4246,143.685 80.5,142.5C 80.5,139.5 80.5,136.5 80.5,133.5 Z"/></g>
<g><path style="opacity:1" fill="#f6f3f7" d="M 98.5,148.5 C 99.0096,154.99 96.0096,158.324 89.5,158.5C 86.5585,158.146 83.7252,157.48 81,156.5C 80.6174,157.056 80.1174,157.389 79.5,157.5C 79.3915,155.486 80.0582,153.82 81.5,152.5C 84.7871,151.839 88.1204,151.339 91.5,151C 88.6715,149.491 85.8381,149.325 83,150.5C 82.088,148.341 81.2546,146.175 80.5,144C 86.3528,145.154 92.3528,145.654 98.5,145.5C 98.5,146.5 98.5,147.5 98.5,148.5 Z"/></g>
<g><path style="opacity:0.184" fill="#2c2546" d="M 121.5,132.5 C 121.326,140.074 121.993,147.574 123.5,155C 122.097,163.053 117.264,166.553 109,165.5C 104.173,166.057 100.006,164.724 96.5,161.5C 90.2006,163.038 84.0339,162.704 78,160.5C 76.4577,158.435 76.291,156.435 77.5,154.5C 78.8333,153.5 80.1667,152.5 81.5,151.5C 81.5,151.833 81.5,152.167 81.5,152.5C 80.0582,153.82 79.3915,155.486 79.5,157.5C 85.2006,161.132 91.2006,161.466 97.5,158.5C 98.1667,158.5 98.8333,158.5 99.5,158.5C 99.5,158.833 99.5,159.167 99.5,159.5C 101.576,162.702 104.576,164.035 108.5,163.5C 119.043,163.77 122.876,158.77 120,148.5C 119.751,147.376 119.251,146.376 118.5,145.5C 117.264,146.246 115.93,146.579 114.5,146.5C 110.298,146.817 106.298,146.483 102.5,145.5C 106.167,145.5 109.833,145.5 113.5,145.5C 115.848,145.408 117.514,144.408 118.5,142.5C 119.166,138.979 119.833,135.313 120.5,131.5C 121.107,131.624 121.44,131.957 121.5,132.5 Z"/></g>
<g><path style="opacity:1" fill="#f6f4f7" d="M 102.5,145.5 C 106.298,146.483 110.298,146.817 114.5,146.5C 121.292,155.42 118.958,160.086 107.5,160.5C 104.803,160.297 102.136,159.964 99.5,159.5C 99.5,159.167 99.5,158.833 99.5,158.5C 100.64,157.199 101.973,156.032 103.5,155C 107.241,154.498 110.908,154.498 114.5,155C 112.444,153.481 110.11,152.647 107.5,152.5C 103.125,154.161 100.791,152.494 100.5,147.5C 100.747,146.287 101.414,145.62 102.5,145.5 Z"/></g>
<g><path style="opacity:1" fill="#bfb3c4" d="M 98.5,148.5 C 101.436,152.109 101.103,155.442 97.5,158.5C 91.2006,161.466 85.2006,161.132 79.5,157.5C 80.1174,157.389 80.6174,157.056 81,156.5C 83.7252,157.48 86.5585,158.146 89.5,158.5C 96.0096,158.324 99.0096,154.99 98.5,148.5 Z"/></g>
<g><path style="opacity:1" fill="#bcafc3" d="M 99.5,159.5 C 102.136,159.964 104.803,160.297 107.5,160.5C 118.958,160.086 121.292,155.42 114.5,146.5C 115.93,146.579 117.264,146.246 118.5,145.5C 119.251,146.376 119.751,147.376 120,148.5C 122.876,158.77 119.043,163.77 108.5,163.5C 104.576,164.035 101.576,162.702 99.5,159.5 Z"/></g>
</svg>
