<?xml version="1.0" encoding="UTF-8"?>
<!DOCTYPE svg PUBLIC "-//W3C//DTD SVG 1.1//EN" "http://www.w3.org/Graphics/SVG/1.1/DTD/svg11.dtd">
<svg xmlns="http://www.w3.org/2000/svg" version="1.1" width="195px" height="195px" style="shape-rendering:geometricPrecision; text-rendering:geometricPrecision; image-rendering:optimizeQuality; fill-rule:evenodd; clip-rule:evenodd" xmlns:xlink="http://www.w3.org/1999/xlink">
<g><path style="opacity:1" fill="#f1eef4" d="M 106.5,39.5 C 108.302,40.4582 110.302,41.1249 112.5,41.5C 96.0751,39.2626 82.9084,44.9293 73,58.5C 70.2586,57.7785 69.2586,56.1118 70,53.5C 78.9542,40.6111 91.1208,35.9444 106.5,39.5 Z"/></g>
<g><path style="opacity:0.498" fill="#444363" d="M 101.5,35.5 C 115.046,38.0465 124.379,45.7131 129.5,58.5C 127.616,56.0112 125.616,54.3445 123.5,53.5C 123.5,52.8333 123.5,52.1667 123.5,51.5C 121.108,46.7749 117.441,43.4416 112.5,41.5C 110.302,41.1249 108.302,40.4582 106.5,39.5C 106.938,39.5654 107.272,39.3988 107.5,39C 102.964,37.6211 98.2973,37.1211 93.5,37.5C 96.1667,36.8333 98.8333,36.1667 101.5,35.5 Z"/></g>
<g><path style="opacity:1" fill="#1b1b29" d="M 93.5,37.5 C 98.2973,37.1211 102.964,37.6211 107.5,39C 107.272,39.3988 106.938,39.5654 106.5,39.5C 91.1208,35.9444 78.9542,40.6111 70,53.5C 69.2586,56.1118 70.2586,57.7785 73,58.5C 82.9084,44.9293 96.0751,39.2626 112.5,41.5C 117.441,43.4416 121.108,46.7749 123.5,51.5C 106.982,38.6371 91.4815,39.9705 77,55.5C 75.9055,57.0779 75.0722,58.7446 74.5,60.5C 74.1667,60.5 73.8333,60.5 73.5,60.5C 71.5449,58.6742 69.2116,58.1742 66.5,59C 67.9423,59.3768 68.9423,60.2101 69.5,61.5C 65.3034,59.6862 62.6367,61.0196 61.5,65.5C 60.6618,65.8417 60.3284,66.5084 60.5,67.5C 59.8333,69.1667 59.1667,70.8333 58.5,72.5C 58.0544,65.4407 60.8877,60.1074 67,56.5C 72.4158,45.3774 81.2492,39.0441 93.5,37.5 Z"/></g>
<g><path style="opacity:1" fill="#30193a" d="M 121.5,52.5 C 120.209,52.2627 119.209,52.596 118.5,53.5C 112.251,49.9408 105.584,48.9408 98.5,50.5C 105.568,52.533 111.901,55.8663 117.5,60.5C 117.856,61.8699 118.69,62.8699 120,63.5C 121.15,62.5761 122.15,62.5761 123,63.5C 123.49,62.2068 123.657,60.8734 123.5,59.5C 124.876,59.7475 125.71,61.0808 126,63.5C 127.247,70.2627 126.247,76.596 123,82.5C 119.89,83.6734 119.723,83.1734 122.5,81C 121.004,80.4926 119.837,80.9926 119,82.5C 119.369,76.5134 118.869,70.5134 117.5,64.5C 115.611,62.568 113.611,60.7347 111.5,59C 110.101,58.4054 108.768,58.5721 107.5,59.5C 106.252,58.9598 105.085,58.2931 104,57.5C 103.667,57.8333 103.333,58.1667 103,58.5C 101.491,54.6582 98.6574,52.4915 94.5,52C 95.3802,50.6439 95.7135,49.1439 95.5,47.5C 92.1228,47.6897 89.4561,49.1897 87.5,52C 89.9011,52.805 89.7344,53.6383 87,54.5C 86.586,54.0426 86.086,53.7093 85.5,53.5C 84.4173,54.365 84.2506,55.365 85,56.5C 85.9947,57.0659 86.828,57.7326 87.5,58.5C 86.0413,58.4326 84.7079,58.7659 83.5,59.5C 83.631,58.7611 83.4643,58.0944 83,57.5C 79.5716,62.6947 78.7382,62.028 80.5,55.5C 89.7878,44.8447 101.121,42.0113 114.5,47C 117.595,47.9354 119.929,49.7687 121.5,52.5 Z M 122.5,68.5 C 123.693,68.9704 124.36,69.9704 124.5,71.5C 124.308,73.5767 123.808,75.5767 123,77.5C 122.502,74.5184 122.335,71.5184 122.5,68.5 Z"/></g>
<g><path style="opacity:1" fill="#bda8c3" d="M 118.5,53.5 C 118.833,54.1667 119.167,54.8333 119.5,55.5C 119.88,57.698 119.213,59.3646 117.5,60.5C 111.901,55.8663 105.568,52.533 98.5,50.5C 105.584,48.9408 112.251,49.9408 118.5,53.5 Z"/></g>
<g><path style="opacity:1" fill="#331843" d="M 123.5,59.5 C 122.527,57.8608 121.194,56.5274 119.5,55.5C 119.167,54.8333 118.833,54.1667 118.5,53.5C 119.209,52.596 120.209,52.2627 121.5,52.5C 122.167,52.8333 122.833,53.1667 123.5,53.5C 125.616,54.3445 127.616,56.0112 129.5,58.5C 134.331,78.3363 127.664,92.8363 109.5,102C 108.207,102.49 106.873,102.657 105.5,102.5C 105.5,101.833 105.5,101.167 105.5,100.5C 106.833,100.167 108.167,99.8333 109.5,99.5C 111.386,98.6394 113.22,97.6394 115,96.5C 114.937,95.0379 114.271,93.7046 113,92.5C 103.34,93.5166 95.0064,90.5166 88,83.5C 87.773,80.9405 86.4397,79.2738 84,78.5C 83.51,77.2068 83.3433,75.8734 83.5,74.5C 81.8762,74.3601 80.7096,75.0267 80,76.5C 79.6012,76.2716 79.4346,75.9382 79.5,75.5C 79.2322,73.901 79.5655,72.5676 80.5,71.5C 80.8212,73.0481 81.8212,73.7148 83.5,73.5C 83.5,72.5 83.5,71.5 83.5,70.5C 88.7507,69.4807 88.7507,68.4807 83.5,67.5C 89.7195,66.7873 91.0528,63.7873 87.5,58.5C 86.828,57.7326 85.9947,57.0659 85,56.5C 84.2506,55.365 84.4173,54.365 85.5,53.5C 86.086,53.7093 86.586,54.0426 87,54.5C 89.7344,53.6383 89.9011,52.805 87.5,52C 89.4561,49.1897 92.1228,47.6897 95.5,47.5C 95.7135,49.1439 95.3802,50.6439 94.5,52C 98.6574,52.4915 101.491,54.6582 103,58.5C 103.333,58.1667 103.667,57.8333 104,57.5C 105.085,58.2931 106.252,58.9598 107.5,59.5C 108.768,58.5721 110.101,58.4054 111.5,59C 113.611,60.7347 115.611,62.568 117.5,64.5C 118.869,70.5134 119.369,76.5134 119,82.5C 119.837,80.9926 121.004,80.4926 122.5,81C 119.723,83.1734 119.89,83.6734 123,82.5C 126.247,76.596 127.247,70.2627 126,63.5C 125.71,61.0808 124.876,59.7475 123.5,59.5 Z M 122.5,68.5 C 122.335,71.5184 122.502,74.5184 123,77.5C 123.808,75.5767 124.308,73.5767 124.5,71.5C 124.36,69.9704 123.693,68.9704 122.5,68.5 Z"/></g>
<g><path style="opacity:1" fill="#e0dae5" d="M 123.5,51.5 C 123.5,52.1667 123.5,52.8333 123.5,53.5C 122.833,53.1667 122.167,52.8333 121.5,52.5C 119.929,49.7687 117.595,47.9354 114.5,47C 101.121,42.0113 89.7878,44.8447 80.5,55.5C 78.6957,57.4953 76.6957,59.1619 74.5,60.5C 75.0722,58.7446 75.9055,57.0779 77,55.5C 91.4815,39.9705 106.982,38.6371 123.5,51.5 Z"/></g>
<g><path style="opacity:0.624" fill="#909db8" d="M 101.5,35.5 C 98.8333,36.1667 96.1667,36.8333 93.5,37.5C 81.2492,39.0441 72.4158,45.3774 67,56.5C 60.8877,60.1074 58.0544,65.4407 58.5,72.5C 59.038,74.1172 59.3713,75.7839 59.5,77.5C 58.7784,77.0825 58.2784,76.4158 58,75.5C 57.3333,71.5 57.3333,67.5 58,63.5C 62.6543,58.8621 66.321,53.5288 69,47.5C 77.9765,38.6723 88.8098,34.6723 101.5,35.5 Z"/></g>
<g><path style="opacity:0.384" fill="#735a7e" d="M 119.5,55.5 C 121.194,56.5274 122.527,57.8608 123.5,59.5C 123.657,60.8734 123.49,62.2068 123,63.5C 122.15,62.5761 121.15,62.5761 120,63.5C 118.69,62.8699 117.856,61.8699 117.5,60.5C 119.213,59.3646 119.88,57.698 119.5,55.5 Z"/></g>
<g><path style="opacity:1" fill="#f2f1f2" d="M 69.5,61.5 C 71.485,65.059 71.8183,68.7256 70.5,72.5C 64.8122,73.469 61.8122,71.1357 61.5,65.5C 62.6367,61.0196 65.3034,59.6862 69.5,61.5 Z"/></g>
<g><path style="opacity:1" fill="#dfd7e3" d="M 73.5,60.5 C 78.4088,68.3914 76.9088,74.7247 69,79.5C 68.5,79.3333 68,79.1667 67.5,79C 72.2114,74.8604 73.7114,69.6938 72,63.5C 71.2917,62.6195 70.4584,61.9528 69.5,61.5C 68.9423,60.2101 67.9423,59.3768 66.5,59C 69.2116,58.1742 71.5449,58.6742 73.5,60.5 Z"/></g>
<g><path style="opacity:1" fill="#c5b7cc" d="M 87.5,58.5 C 91.0528,63.7873 89.7195,66.7873 83.5,67.5C 80.9405,64.9102 80.9405,62.2435 83.5,59.5C 84.7079,58.7659 86.0413,58.4326 87.5,58.5 Z"/></g>
<g><path style="opacity:1" fill="#2a1e37" d="M 80.5,55.5 C 78.7382,62.028 79.5716,62.6947 83,57.5C 83.4643,58.0944 83.631,58.7611 83.5,59.5C 80.9405,62.2435 80.9405,64.9102 83.5,67.5C 88.7507,68.4807 88.7507,69.4807 83.5,70.5C 82.209,70.2627 81.209,70.596 80.5,71.5C 79.5655,72.5676 79.2322,73.901 79.5,75.5C 78.8826,75.3893 78.3826,75.056 78,74.5C 77.0513,76.0931 75.8846,77.4264 74.5,78.5C 73.5222,78.811 72.8555,79.4777 72.5,80.5C 78.4334,95.6296 89.4334,102.296 105.5,100.5C 105.5,101.167 105.5,101.833 105.5,102.5C 104.89,103.391 104.557,104.391 104.5,105.5C 103.659,106.009 103.159,105.343 103,103.5C 102.536,104.094 102.369,104.761 102.5,105.5C 101.778,105.082 101.278,104.416 101,103.5C 100.722,104.416 100.222,105.082 99.5,105.5C 99.6716,104.508 99.3382,103.842 98.5,103.5C 93.6671,103.625 89.0004,102.792 84.5,101C 79.7678,98.6433 75.4345,95.81 71.5,92.5C 71.5,91.8333 71.1667,91.5 70.5,91.5C 68.1617,89.9605 65.4951,89.2938 62.5,89.5C 62.5,89.1667 62.5,88.8333 62.5,88.5C 64.8568,88.6633 67.1902,88.4966 69.5,88C 68.2062,85.913 67.0395,83.7463 66,81.5C 65.5357,82.0944 65.369,82.7611 65.5,83.5C 63.1667,81.8333 61.1667,79.8333 59.5,77.5C 59.3713,75.7839 59.038,74.1172 58.5,72.5C 59.1667,70.8333 59.8333,69.1667 60.5,67.5C 59.7691,71.6034 60.7691,75.1034 63.5,78C 67.079,77.9369 69.4123,76.1036 70.5,72.5C 71.8183,68.7256 71.485,65.059 69.5,61.5C 70.4584,61.9528 71.2917,62.6195 72,63.5C 73.7114,69.6938 72.2114,74.8604 67.5,79C 68,79.1667 68.5,79.3333 69,79.5C 76.9088,74.7247 78.4088,68.3914 73.5,60.5C 73.8333,60.5 74.1667,60.5 74.5,60.5C 76.6957,59.1619 78.6957,57.4953 80.5,55.5 Z"/></g>
<g><path style="opacity:1" fill="#d0bede" d="M 83.5,70.5 C 83.5,71.5 83.5,72.5 83.5,73.5C 81.8212,73.7148 80.8212,73.0481 80.5,71.5C 81.209,70.596 82.209,70.2627 83.5,70.5 Z"/></g>
<g><path style="opacity:1" fill="#baafc1" d="M 61.5,65.5 C 61.8122,71.1357 64.8122,73.469 70.5,72.5C 69.4123,76.1036 67.079,77.9369 63.5,78C 60.7691,75.1034 59.7691,71.6034 60.5,67.5C 60.3284,66.5084 60.6618,65.8417 61.5,65.5 Z"/></g>
<g><path style="opacity:1" fill="#23102f" d="M 79.5,75.5 C 79.4346,75.9382 79.6012,76.2716 80,76.5C 80.7096,75.0267 81.8762,74.3601 83.5,74.5C 83.3433,75.8734 83.51,77.2068 84,78.5C 86.4397,79.2738 87.773,80.9405 88,83.5C 95.0064,90.5166 103.34,93.5166 113,92.5C 114.271,93.7046 114.937,95.0379 115,96.5C 113.22,97.6394 111.386,98.6394 109.5,99.5C 96.1615,101.757 85.3282,97.4238 77,86.5C 75.8644,83.9036 75.031,81.237 74.5,78.5C 75.8846,77.4264 77.0513,76.0931 78,74.5C 78.3826,75.056 78.8826,75.3893 79.5,75.5 Z"/></g>
<g><path style="opacity:0.463" fill="#747e9e" d="M 62.5,88.5 C 59.1667,88.5 55.8333,88.5 52.5,88.5C 51.8333,88.5 51.1667,88.5 50.5,88.5C 55.6676,86.9487 60.6676,85.282 65.5,83.5C 65.369,82.7611 65.5357,82.0944 66,81.5C 67.0395,83.7463 68.2062,85.913 69.5,88C 67.1902,88.4966 64.8568,88.6633 62.5,88.5 Z"/></g>
<g><path style="opacity:1" fill="#b6aac4" d="M 67.5,82.5 C 68.7082,81.218 70.0416,81.218 71.5,82.5C 73.8228,88.3267 77.4895,93.16 82.5,97C 81.0922,97.3152 79.7589,96.9819 78.5,96C 73.8329,92.181 70.1663,87.681 67.5,82.5 Z"/></g>
<g><path style="opacity:0.757" fill="#a7b6d5" d="M 50.5,88.5 C 51.1667,88.5 51.8333,88.5 52.5,88.5C 48.3025,92.7161 45.3025,97.7161 43.5,103.5C 40.4974,105.299 38.6641,107.966 38,111.5C 37.3333,113.167 37.3333,114.833 38,116.5C 38.8611,119.731 40.0278,122.731 41.5,125.5C 41.5,126.5 41.5,127.5 41.5,128.5C 40.2101,127.942 39.3768,126.942 39,125.5C 36.8187,120.022 36.152,114.356 37,108.5C 40.5719,103.03 43.9053,97.3635 47,91.5C 48.0391,90.2899 49.2058,89.2899 50.5,88.5 Z"/></g>
<g><path style="opacity:1" fill="#bca8c6" d="M 74.5,78.5 C 75.031,81.237 75.8644,83.9036 77,86.5C 85.3282,97.4238 96.1615,101.757 109.5,99.5C 108.167,99.8333 106.833,100.167 105.5,100.5C 89.4334,102.296 78.4334,95.6296 72.5,80.5C 72.8555,79.4777 73.5222,78.811 74.5,78.5 Z"/></g>
<g><path style="opacity:1" fill="#f8f8f9" d="M 69.5,94.5 C 72.4883,96.4112 75.4883,98.4112 78.5,100.5C 78.7064,109.745 83.0398,116.245 91.5,120C 94.7367,121.452 98.07,122.619 101.5,123.5C 102.705,124.577 103.372,125.91 103.5,127.5C 103.56,134.274 100.227,137.44 93.5,137C 91.7208,135.86 90.0541,134.693 88.5,133.5C 87.8333,133.5 87.5,133.167 87.5,132.5C 82.127,129.904 77.127,126.571 72.5,122.5C 69.7319,116.789 67.5652,110.789 66,104.5C 66.4442,110.694 64.2775,111.194 59.5,106C 62.6984,101.974 66.0317,98.1405 69.5,94.5 Z"/></g>
<g><path style="opacity:1" fill="#bab0c2" d="M 71.5,92.5 C 75.4345,95.81 79.7678,98.6433 84.5,101C 89.0004,102.792 93.6671,103.625 98.5,103.5C 98.5,104.5 98.5,105.5 98.5,106.5C 92.0749,106.04 85.7416,105.04 79.5,103.5C 79.7373,102.209 79.404,101.209 78.5,100.5C 75.4883,98.4112 72.4883,96.4112 69.5,94.5C 69.8333,93.5 70.5,92.8333 71.5,92.5 Z"/></g>
<g><path style="opacity:1" fill="#f1eef2" d="M 62.5,89.5 C 65.4951,89.2938 68.1617,89.9605 70.5,91.5C 65.8185,95.1897 61.8185,99.5231 58.5,104.5C 55.7367,105.104 53.4034,106.438 51.5,108.5C 49.0038,107.42 46.6705,106.086 44.5,104.5C 46.537,99.5874 49.2036,95.0874 52.5,91C 54.1893,91.1343 55.856,91.6343 57.5,92.5C 57.0472,91.5416 56.3805,90.7083 55.5,90C 57.8098,89.5034 60.1432,89.3367 62.5,89.5 Z"/></g>
<g><path style="opacity:1" fill="#eae7ed" d="M 99.5,108.5 C 99.5,109.5 99.5,110.5 99.5,111.5C 93.0786,110.248 91.0786,112.581 93.5,118.5C 90.7255,117.94 88.8922,116.273 88,113.5C 87.5034,111.19 87.3367,108.857 87.5,106.5C 91.5607,107.006 95.5607,107.673 99.5,108.5 Z"/></g>
<g><path style="opacity:1" fill="#23253e" d="M 99.5,108.5 C 100.321,111.35 101.654,114.017 103.5,116.5C 103.152,118.848 101.818,120.182 99.5,120.5C 100.476,119.185 101.476,117.852 102.5,116.5C 102.192,115.692 101.692,115.025 101,114.5C 100.691,115.766 100.191,116.933 99.5,118C 97.5273,118.495 95.5273,118.662 93.5,118.5C 91.0786,112.581 93.0786,110.248 99.5,111.5C 99.5,110.5 99.5,109.5 99.5,108.5 Z"/></g>
<g><path style="opacity:1" fill="#659dbb" d="M 96.5,112.5 C 97.5,112.5 98.5,112.5 99.5,112.5C 99.8841,114.665 99.2174,116.332 97.5,117.5C 96.5481,115.955 96.2148,114.288 96.5,112.5 Z"/></g>
<g><path style="opacity:1" fill="#9cd2ed" d="M 159.5,117.5 C 157.801,117.66 156.134,117.494 154.5,117C 155.888,116.111 155.722,115.611 154,115.5C 140.615,117.659 127.115,118.993 113.5,119.5C 113.483,121.565 113.15,123.565 112.5,125.5C 111.631,127.717 111.298,130.05 111.5,132.5C 108.591,138.781 106.591,145.447 105.5,152.5C 104.414,152.38 103.747,151.713 103.5,150.5C 105.485,143.892 107.152,137.226 108.5,130.5C 109.934,126.288 111.601,122.122 113.5,118C 128.805,116.096 144.138,114.596 159.5,113.5C 159.5,114.833 159.5,116.167 159.5,117.5 Z"/></g>
<g><path style="opacity:0.933" fill="#232e49" d="M 104.5,105.5 C 106.191,109.008 108.524,112.175 111.5,115C 112.667,115.167 113.833,115.333 115,115.5C 130.108,113.106 145.275,111.606 160.5,111C 161.944,112.126 162.61,113.626 162.5,115.5C 161.961,119.327 160.961,122.994 159.5,126.5C 158.833,125.833 158.167,125.167 157.5,124.5C 158.319,122.228 158.985,119.894 159.5,117.5C 159.5,116.167 159.5,114.833 159.5,113.5C 144.138,114.596 128.805,116.096 113.5,118C 111.601,122.122 109.934,126.288 108.5,130.5C 108.167,130.5 107.833,130.5 107.5,130.5C 108.601,126.265 109.934,122.098 111.5,118C 107.158,114.822 104.158,110.655 102.5,105.5C 102.369,104.761 102.536,104.094 103,103.5C 103.159,105.343 103.659,106.009 104.5,105.5 Z"/></g>
<g><path style="opacity:1" fill="#2a2435" d="M 52.5,88.5 C 55.8333,88.5 59.1667,88.5 62.5,88.5C 62.5,88.8333 62.5,89.1667 62.5,89.5C 60.1432,89.3367 57.8098,89.5034 55.5,90C 56.3805,90.7083 57.0472,91.5416 57.5,92.5C 55.856,91.6343 54.1893,91.1343 52.5,91C 49.2036,95.0874 46.537,99.5874 44.5,104.5C 46.6705,106.086 49.0038,107.42 51.5,108.5C 53.4034,106.438 55.7367,105.104 58.5,104.5C 61.8185,99.5231 65.8185,95.1897 70.5,91.5C 71.1667,91.5 71.5,91.8333 71.5,92.5C 70.5,92.8333 69.8333,93.5 69.5,94.5C 66.0317,98.1405 62.6984,101.974 59.5,106C 64.2775,111.194 66.4442,110.694 66,104.5C 67.5652,110.789 69.7319,116.789 72.5,122.5C 75.533,127.865 79.8663,131.865 85.5,134.5C 86.1818,133.757 86.8485,133.091 87.5,132.5C 87.5,133.167 87.8333,133.5 88.5,133.5C 91.0938,141.952 95.9271,143.619 103,138.5C 104.607,134.741 104.774,131.074 103.5,127.5C 103.372,125.91 102.705,124.577 101.5,123.5C 98.07,122.619 94.7367,121.452 91.5,120C 83.0398,116.245 78.7064,109.745 78.5,100.5C 79.404,101.209 79.7373,102.209 79.5,103.5C 85.7416,105.04 92.0749,106.04 98.5,106.5C 98.5,105.5 98.5,104.5 98.5,103.5C 99.3382,103.842 99.6716,104.508 99.5,105.5C 99.5,106.5 99.5,107.5 99.5,108.5C 95.5607,107.673 91.5607,107.006 87.5,106.5C 87.3367,108.857 87.5034,111.19 88,113.5C 88.8922,116.273 90.7255,117.94 93.5,118.5C 95.1016,120.074 97.1016,120.741 99.5,120.5C 104.254,122.955 106.587,126.955 106.5,132.5C 107.298,132.043 107.631,131.376 107.5,130.5C 107.833,130.5 108.167,130.5 108.5,130.5C 107.152,137.226 105.485,143.892 103.5,150.5C 103.747,151.713 104.414,152.38 105.5,152.5C 109.135,151.886 112.802,151.552 116.5,151.5C 114.5,152.167 112.5,152.833 110.5,153.5C 107.5,153.5 104.5,153.5 101.5,153.5C 101.5,153.167 101.5,152.833 101.5,152.5C 102.877,148.222 103.711,143.888 104,139.5C 102.014,141.742 99.5143,142.742 96.5,142.5C 90.8514,141.54 85.1847,141.373 79.5,142C 75.7771,143.039 75.7771,144.206 79.5,145.5C 78.1667,145.5 76.8333,145.5 75.5,145.5C 75.1667,145.5 74.8333,145.5 74.5,145.5C 70.5,145.5 66.5,145.5 62.5,145.5C 62.1667,145.5 61.8333,145.5 61.5,145.5C 61.0836,139.324 62.7503,133.824 66.5,129C 64.8374,128.735 63.3374,129.235 62,130.5C 61,132.833 60,135.167 59,137.5C 58.4729,130.759 61.6395,126.925 68.5,126C 66.1244,123.32 63.1244,121.987 59.5,122C 64.9075,120.953 69.0742,122.786 72,127.5C 72.5,127.333 73,127.167 73.5,127C 72.3333,125.167 71.1667,123.333 70,121.5C 64.3994,120.245 59.0661,118.245 54,115.5C 51.0077,119.31 49.5077,123.643 49.5,128.5C 48.6829,130.969 48.1829,133.635 48,136.5C 47.7096,134.08 47.2096,131.746 46.5,129.5C 47.8011,124.188 49.8011,119.021 52.5,114C 52.3333,113.5 52.1667,113 52,112.5C 51.3918,114.066 50.5585,115.4 49.5,116.5C 48.5791,120.877 46.0791,122.21 42,120.5C 41.5065,122.134 41.3398,123.801 41.5,125.5C 40.0278,122.731 38.8611,119.731 38,116.5C 37.3333,114.833 37.3333,113.167 38,111.5C 38.6641,107.966 40.4974,105.299 43.5,103.5C 45.3025,97.7161 48.3025,92.7161 52.5,88.5 Z"/></g>
<g><path style="opacity:1" fill="#bfb6c6" d="M 54.5,107.5 C 55.6913,112.366 58.858,115.032 64,115.5C 65.7491,115.252 66.5824,114.252 66.5,112.5C 67.3058,113.997 67.9724,115.664 68.5,117.5C 62.7604,118.531 57.9271,116.864 54,112.5C 53.2204,110.613 53.3871,108.946 54.5,107.5 Z"/></g>
<g><path style="opacity:1" fill="#f7f5f8" d="M 66.5,112.5 C 66.5824,114.252 65.7491,115.252 64,115.5C 58.858,115.032 55.6913,112.366 54.5,107.5C 55.1499,107.196 55.8165,106.863 56.5,106.5C 59.8968,108.526 63.2301,110.526 66.5,112.5 Z"/></g>
<g><path style="opacity:1" fill="#ede9ef" d="M 49.5,116.5 C 48.5416,116.953 47.7083,117.619 47,118.5C 46.8333,118.167 46.6667,117.833 46.5,117.5C 47.9294,115.669 48.4294,113.669 48,111.5C 46.9605,113.746 45.7938,115.913 44.5,118C 42.8876,118.72 41.3876,118.554 40,117.5C 39.0299,113.124 39.8632,109.124 42.5,105.5C 44.8333,106.833 47.1667,108.167 49.5,109.5C 50.3635,111.771 50.3635,114.105 49.5,116.5 Z"/></g>
<g><path style="opacity:1" fill="#eeecf2" d="M 80.5,105.5 C 82.7505,105.181 84.7505,105.681 86.5,107C 85.7362,109.069 85.2362,111.236 85,113.5C 82.8431,111.183 81.3431,108.516 80.5,105.5 Z"/></g>
<g><path style="opacity:1" fill="#454349" d="M 57.5,92.5 C 60.3228,93.1476 61.8228,94.8142 62,97.5C 60.2927,95.9625 58.7927,94.2959 57.5,92.5 Z"/></g>
<g><path style="opacity:1" fill="#eae5eb" d="M 102.5,105.5 C 104.158,110.655 107.158,114.822 111.5,118C 109.934,122.098 108.601,126.265 107.5,130.5C 107.631,131.376 107.298,132.043 106.5,132.5C 106.587,126.955 104.254,122.955 99.5,120.5C 101.818,120.182 103.152,118.848 103.5,116.5C 101.654,114.017 100.321,111.35 99.5,108.5C 99.5,107.5 99.5,106.5 99.5,105.5C 100.222,105.082 100.722,104.416 101,103.5C 101.278,104.416 101.778,105.082 102.5,105.5 Z"/></g>
<g><path style="opacity:1" fill="#8a799d" d="M 99.5,120.5 C 97.1016,120.741 95.1016,120.074 93.5,118.5C 95.5273,118.662 97.5273,118.495 99.5,118C 100.191,116.933 100.691,115.766 101,114.5C 101.692,115.025 102.192,115.692 102.5,116.5C 101.476,117.852 100.476,119.185 99.5,120.5 Z"/></g>
<g><path style="opacity:1" fill="#b4a8bd" d="M 46.5,129.5 C 45.0552,127.937 43.3885,126.604 41.5,125.5C 41.3398,123.801 41.5065,122.134 42,120.5C 46.0791,122.21 48.5791,120.877 49.5,116.5C 50.5585,115.4 51.3918,114.066 52,112.5C 52.1667,113 52.3333,113.5 52.5,114C 49.8011,119.021 47.8011,124.188 46.5,129.5 Z"/></g>
<g><path style="opacity:1" fill="#f1eef2" d="M 61.5,145.5 C 60.8333,145.5 60.5,145.833 60.5,146.5C 56.8333,143.167 53.1667,139.833 49.5,136.5C 49.5,133.833 49.5,131.167 49.5,128.5C 49.5077,123.643 51.0077,119.31 54,115.5C 59.0661,118.245 64.3994,120.245 70,121.5C 71.1667,123.333 72.3333,125.167 73.5,127C 73,127.167 72.5,127.333 72,127.5C 69.0742,122.786 64.9075,120.953 59.5,122C 63.1244,121.987 66.1244,123.32 68.5,126C 61.6395,126.925 58.4729,130.759 59,137.5C 60,135.167 61,132.833 62,130.5C 63.3374,129.235 64.8374,128.735 66.5,129C 62.7503,133.824 61.0836,139.324 61.5,145.5 Z"/></g>
<g><path style="opacity:1" fill="#bdadbe" d="M 72.5,122.5 C 77.127,126.571 82.127,129.904 87.5,132.5C 86.8485,133.091 86.1818,133.757 85.5,134.5C 79.8663,131.865 75.533,127.865 72.5,122.5 Z"/></g>
<g><path style="opacity:1" fill="#3c3451" d="M 140.5,133.5 C 140.631,132.761 140.464,132.094 140,131.5C 137.584,134.276 136.25,133.943 136,130.5C 136.75,129.874 137.584,129.374 138.5,129C 134.23,129.753 131.23,132.253 129.5,136.5C 124.336,133.205 125.003,130.871 131.5,129.5C 134.889,127.78 138.556,127.113 142.5,127.5C 142.741,129.898 142.074,131.898 140.5,133.5 Z"/></g>
<g><path style="opacity:1" fill="#d2c7d8" d="M 68.5,129.5 C 72.1693,128.697 74.836,129.864 76.5,133C 72.7887,133.825 69.122,133.659 65.5,132.5C 66.3398,131.265 67.3398,130.265 68.5,129.5 Z"/></g>
<g><path style="opacity:1" fill="#e2ddea" d="M 140.5,133.5 C 138.249,135.21 135.749,136.543 133,137.5C 131.989,137.108 131.489,136.441 131.5,135.5C 130.817,135.863 130.15,136.196 129.5,136.5C 131.23,132.253 134.23,129.753 138.5,129C 137.584,129.374 136.75,129.874 136,130.5C 136.25,133.943 137.584,134.276 140,131.5C 140.464,132.094 140.631,132.761 140.5,133.5 Z"/></g>
<g><path style="opacity:1" fill="#b5acbc" d="M 63.5,135.5 C 67.8333,135.5 72.1667,135.5 76.5,135.5C 76.5,136.833 76.5,138.167 76.5,139.5C 72.1667,139.5 67.8333,139.5 63.5,139.5C 63.5,138.167 63.5,136.833 63.5,135.5 Z"/></g>
<g><path style="opacity:1" fill="#bbaec8" d="M 77.5,131.5 C 80.9886,133.746 84.6552,135.746 88.5,137.5C 85.2317,138.487 81.8984,138.82 78.5,138.5C 78.552,136.097 78.2186,133.764 77.5,131.5 Z"/></g>
<g><path style="opacity:1" fill="#bcb1c3" d="M 103.5,127.5 C 104.774,131.074 104.607,134.741 103,138.5C 95.9271,143.619 91.0938,141.952 88.5,133.5C 90.0541,134.693 91.7208,135.86 93.5,137C 100.227,137.44 103.56,134.274 103.5,127.5 Z"/></g>
<g><path style="opacity:1" fill="#b7afbd" d="M 63.5,140.5 C 67.5,140.5 71.5,140.5 75.5,140.5C 75.5,141.833 75.5,143.167 75.5,144.5C 71.1539,144.666 66.8206,144.499 62.5,144C 63.3366,142.989 63.67,141.822 63.5,140.5 Z"/></g>
<g><path style="opacity:0.145" fill="#243069" d="M 157.5,124.5 C 158.167,125.167 158.833,125.833 159.5,126.5C 157.782,134.708 155.449,142.708 152.5,150.5C 150.084,149.032 147.417,148.365 144.5,148.5C 146.607,147.532 148.941,147.198 151.5,147.5C 153.099,139.708 155.099,132.041 157.5,124.5 Z"/></g>
<g><path style="opacity:1" fill="#b3abbd" d="M 49.5,136.5 C 53.1667,139.833 56.8333,143.167 60.5,146.5C 60.6567,147.873 60.49,149.207 60,150.5C 58.907,148.651 57.5737,146.984 56,145.5C 55.3292,146.252 54.4959,146.586 53.5,146.5C 51.0645,143.626 49.7312,140.293 49.5,136.5 Z"/></g>
<g><path style="opacity:0.376" fill="#494a6c" d="M 41.5,125.5 C 43.3885,126.604 45.0552,127.937 46.5,129.5C 47.2096,131.746 47.7096,134.08 48,136.5C 48.1829,133.635 48.6829,130.969 49.5,128.5C 49.5,131.167 49.5,133.833 49.5,136.5C 49.7312,140.293 51.0645,143.626 53.5,146.5C 56.8289,148.834 59.4956,151.834 61.5,155.5C 63.3964,156.275 65.063,157.275 66.5,158.5C 61.5115,158.682 58.3448,156.349 57,151.5C 48.9727,147.788 45.3061,141.455 46,132.5C 44.6032,130.93 43.1032,129.596 41.5,128.5C 41.5,127.5 41.5,126.5 41.5,125.5 Z"/></g>
<g><path style="opacity:1" fill="#35aaef" d="M 131.5,129.5 C 125.003,130.871 124.336,133.205 129.5,136.5C 129.167,137.167 128.833,137.833 128.5,138.5C 127.883,138.389 127.383,138.056 127,137.5C 123.734,142.208 119.9,146.375 115.5,150C 113.153,150.334 110.819,150.167 108.5,149.5C 109.643,146.316 110.309,142.983 110.5,139.5C 111.5,139.5 112.5,139.5 113.5,139.5C 112.833,137.167 112.167,134.833 111.5,132.5C 111.298,130.05 111.631,127.717 112.5,125.5C 113.5,125.5 114.5,125.5 115.5,125.5C 115.714,123.856 115.38,122.356 114.5,121C 124.145,120.043 133.812,119.543 143.5,119.5C 143.5,120.5 143.5,121.5 143.5,122.5C 138.458,121.753 133.458,122.253 128.5,124C 128.167,124.333 127.833,124.667 127.5,125C 129.5,125.333 131.5,125.667 133.5,126C 132.027,126.71 131.36,127.876 131.5,129.5 Z"/></g>
<g><path style="opacity:1" fill="#50b3eb" d="M 159.5,117.5 C 158.985,119.894 158.319,122.228 157.5,124.5C 155.099,132.041 153.099,139.708 151.5,147.5C 148.941,147.198 146.607,147.532 144.5,148.5C 141.615,148.194 138.948,148.527 136.5,149.5C 136.167,149.5 135.833,149.5 135.5,149.5C 129.123,149.792 122.79,150.459 116.5,151.5C 112.802,151.552 109.135,151.886 105.5,152.5C 106.591,145.447 108.591,138.781 111.5,132.5C 112.167,134.833 112.833,137.167 113.5,139.5C 112.5,139.5 111.5,139.5 110.5,139.5C 110.309,142.983 109.643,146.316 108.5,149.5C 110.819,150.167 113.153,150.334 115.5,150C 119.9,146.375 123.734,142.208 127,137.5C 127.383,138.056 127.883,138.389 128.5,138.5C 130.567,139.263 132.234,140.596 133.5,142.5C 136.366,139.849 138.699,136.849 140.5,133.5C 142.074,131.898 142.741,129.898 142.5,127.5C 138.556,127.113 134.889,127.78 131.5,129.5C 131.36,127.876 132.027,126.71 133.5,126C 131.5,125.667 129.5,125.333 127.5,125C 127.833,124.667 128.167,124.333 128.5,124C 133.458,122.253 138.458,121.753 143.5,122.5C 143.5,121.5 143.5,120.5 143.5,119.5C 133.812,119.543 124.145,120.043 114.5,121C 115.38,122.356 115.714,123.856 115.5,125.5C 114.5,125.5 113.5,125.5 112.5,125.5C 113.15,123.565 113.483,121.565 113.5,119.5C 127.115,118.993 140.615,117.659 154,115.5C 155.722,115.611 155.888,116.111 154.5,117C 156.134,117.494 157.801,117.66 159.5,117.5 Z"/></g>
<g><path style="opacity:1" fill="#43314c" d="M 140.5,133.5 C 138.699,136.849 136.366,139.849 133.5,142.5C 132.234,140.596 130.567,139.263 128.5,138.5C 128.833,137.833 129.167,137.167 129.5,136.5C 130.15,136.196 130.817,135.863 131.5,135.5C 131.489,136.441 131.989,137.108 133,137.5C 135.749,136.543 138.249,135.21 140.5,133.5 Z"/></g>
<g><path style="opacity:1" fill="#a69da9" d="M 62.5,145.5 C 66.5,145.5 70.5,145.5 74.5,145.5C 74.4431,146.609 74.1098,147.609 73.5,148.5C 70.0381,149.482 66.3714,149.815 62.5,149.5C 62.5,148.167 62.5,146.833 62.5,145.5 Z"/></g>
<g><path style="opacity:1" fill="#a0bfda" d="M 101.5,152.5 C 94.1551,150.163 86.8217,147.829 79.5,145.5C 75.7771,144.206 75.7771,143.039 79.5,142C 85.1847,141.373 90.8514,141.54 96.5,142.5C 99.5143,142.742 102.014,141.742 104,139.5C 103.711,143.888 102.877,148.222 101.5,152.5 Z"/></g>
<g><path style="opacity:1" fill="#6b1d38" d="M 75.5,145.5 C 76.8333,145.5 78.1667,145.5 79.5,145.5C 86.8217,147.829 94.1551,150.163 101.5,152.5C 101.5,152.833 101.5,153.167 101.5,153.5C 96.8102,152.383 92.1435,151.05 87.5,149.5C 86.5836,149.543 85.9169,149.876 85.5,150.5C 81.2534,150.327 77.9201,148.661 75.5,145.5 Z"/></g>
<g><path style="opacity:0.447" fill="#410411" d="M 74.5,145.5 C 74.8333,145.5 75.1667,145.5 75.5,145.5C 77.9201,148.661 81.2534,150.327 85.5,150.5C 91.4434,154.041 97.9434,156.041 105,156.5C 118.833,155 132.666,153.5 146.5,152C 147.672,151.581 148.672,150.915 149.5,150C 145.179,149.501 140.846,149.334 136.5,149.5C 138.948,148.527 141.615,148.194 144.5,148.5C 147.417,148.365 150.084,149.032 152.5,150.5C 151.025,152.41 149.025,153.576 146.5,154C 132.941,155.004 119.441,156.504 106,158.5C 95.8332,156.611 85.9998,153.611 76.5,149.5C 75.8933,149.624 75.56,149.957 75.5,150.5C 74.8333,149.833 74.1667,149.167 73.5,148.5C 74.1098,147.609 74.4431,146.609 74.5,145.5 Z"/></g>
<g><path style="opacity:1" fill="#b02e42" d="M 101.5,153.5 C 104.5,153.5 107.5,153.5 110.5,153.5C 117.023,153.108 123.523,152.441 130,151.5C 132.295,151.453 134.129,150.787 135.5,149.5C 135.833,149.5 136.167,149.5 136.5,149.5C 140.846,149.334 145.179,149.501 149.5,150C 148.672,150.915 147.672,151.581 146.5,152C 132.666,153.5 118.833,155 105,156.5C 97.9434,156.041 91.4434,154.041 85.5,150.5C 85.9169,149.876 86.5836,149.543 87.5,149.5C 92.1435,151.05 96.8102,152.383 101.5,153.5 Z"/></g>
<g><path style="opacity:1" fill="#6f2134" d="M 135.5,149.5 C 134.129,150.787 132.295,151.453 130,151.5C 123.523,152.441 117.023,153.108 110.5,153.5C 112.5,152.833 114.5,152.167 116.5,151.5C 122.79,150.459 129.123,149.792 135.5,149.5 Z"/></g>
<g><path style="opacity:0.843" fill="#271e40" d="M 60.5,146.5 C 60.5,145.833 60.8333,145.5 61.5,145.5C 61.8333,145.5 62.1667,145.5 62.5,145.5C 62.5,146.833 62.5,148.167 62.5,149.5C 66.3714,149.815 70.0381,149.482 73.5,148.5C 74.1667,149.167 74.8333,149.833 75.5,150.5C 73.7128,154.625 70.7128,157.292 66.5,158.5C 65.063,157.275 63.3964,156.275 61.5,155.5C 59.4956,151.834 56.8289,148.834 53.5,146.5C 54.4959,146.586 55.3292,146.252 56,145.5C 57.5737,146.984 58.907,148.651 60,150.5C 60.49,149.207 60.6567,147.873 60.5,146.5 Z"/></g>
<g><path style="opacity:1" fill="#857b90" d="M 62.5,151.5 C 65.5719,151.183 68.5719,151.516 71.5,152.5C 69.5592,155.334 66.8926,156.168 63.5,155C 62.6634,153.989 62.33,152.822 62.5,151.5 Z"/></g>
</svg>
